<?xml version="1.0" encoding="UTF-8"?>
<svg version="1.1" xmlns="http://www.w3.org/2000/svg" width="715" height="714">
<path d="M0 0 C2.88766551 0.00916436 5.77452013 0.00229798 8.66210938 -0.02050781 C61.45091529 -0.43459232 112.46455325 11.90710726 160.15698242 34.44604492 C160.97811523 34.83131348 161.79924805 35.21658203 162.64526367 35.61352539 C182.36874882 44.93558993 200.60945352 56.52012493 218.15698242 69.44604492 C218.73351562 69.86950195 219.31004883 70.29295898 219.90405273 70.72924805 C232.15437641 79.78601927 243.50820525 89.89264001 254.65698242 100.25854492 C255.30320557 100.85626709 255.94942871 101.45398926 256.61523438 102.06982422 C260.50226197 105.72029827 264.07233356 109.53599967 267.54467773 113.58203125 C269.71359842 116.08955842 272.00128702 118.477733 274.28198242 120.88354492 C289.67792554 137.47602204 303.01227791 156.77364732 314.15698242 176.44604492 C314.61572754 177.25138672 315.07447266 178.05672852 315.54711914 178.88647461 C343.44189283 228.12769397 362.11890745 285.38741233 362.36010742 342.38354492 C362.36712173 343.49401184 362.37413605 344.60447876 362.38136292 345.74859619 C362.39878217 349.31445407 362.40521546 352.88014605 362.40698242 356.44604492 C362.40799454 358.2703302 362.40799454 358.2703302 362.4090271 360.13146973 C362.39374668 377.42890781 362.10866763 394.36082705 359.15698242 411.44604492 C358.89957275 413.01733154 358.89957275 413.01733154 358.63696289 414.62036133 C347.0534387 484.21467157 315.96020414 549.47046667 267.56030273 600.94116211 C266.05367095 602.55683336 264.56876221 604.19065761 263.08666992 605.82885742 C258.33205743 611.07142764 253.62429353 616.1872332 248.18041992 620.73120117 C245.78087387 622.76479329 243.51304691 624.91867584 241.21948242 627.07104492 C233.93217842 633.71238292 226.06672446 639.57227011 218.15698242 645.44604492 C217.56546387 645.88948242 216.97394531 646.33291992 216.36450195 646.78979492 C185.96764393 669.50978223 151.26007075 686.92622985 115.15698242 698.44604492 C114.20629883 698.7513916 113.25561523 699.05673828 112.27612305 699.37133789 C100.53684589 703.09301462 88.70449401 706.14391908 76.65698242 708.69604492 C75.56820801 708.9301709 74.47943359 709.16429687 73.35766602 709.40551758 C69.63516145 710.1608476 65.90473323 710.83120291 62.15698242 711.44604492 C60.94732315 711.64570358 60.94732315 711.64570358 59.71322632 711.84939575 C42.93395601 714.51398834 26.25893658 714.94828706 9.31396484 714.89208984 C6.42629933 714.88292548 3.53944472 714.88979186 0.65185547 714.91259766 C-52.13695044 715.32668217 -103.15058841 702.98498258 -150.84301758 680.44604492 C-152.0747168 679.86814209 -152.0747168 679.86814209 -153.33129883 679.27856445 C-173.05478397 669.95649992 -191.29548868 658.37196491 -208.84301758 645.44604492 C-209.41955078 645.02258789 -209.99608398 644.59913086 -210.59008789 644.1628418 C-222.84041157 635.10607057 -234.19424041 624.99944983 -245.34301758 614.63354492 C-246.31235229 613.73696167 -246.31235229 613.73696167 -247.30126953 612.82226562 C-251.18829712 609.17179157 -254.75836872 605.35609017 -258.23071289 601.31005859 C-260.39963357 598.80253143 -262.68732218 596.41435684 -264.96801758 594.00854492 C-280.36396069 577.41606781 -293.69831306 558.11844252 -304.84301758 538.44604492 C-305.3017627 537.64070312 -305.76050781 536.83536133 -306.2331543 536.00561523 C-334.12792799 486.76439587 -352.80494261 429.50467751 -353.04614258 372.50854492 C-353.05315689 371.398078 -353.0601712 370.28761108 -353.06739807 369.14349365 C-353.08481733 365.57763577 -353.09125062 362.01194379 -353.09301758 358.44604492 C-353.09369232 357.22985474 -353.09436707 356.01366455 -353.09506226 354.76062012 C-353.07978183 337.46318203 -352.79470278 320.53126279 -349.84301758 303.44604492 C-349.67141113 302.39852051 -349.49980469 301.35099609 -349.32299805 300.27172852 C-337.73947385 230.67741828 -306.64623929 165.42162317 -258.24633789 113.95092773 C-256.73970611 112.33525649 -255.25479736 110.70143223 -253.77270508 109.06323242 C-249.01809259 103.8206622 -244.31032869 98.70485665 -238.86645508 94.16088867 C-236.46690903 92.12729656 -234.19908207 89.973414 -231.90551758 87.82104492 C-224.61821357 81.17970692 -216.75275961 75.31981973 -208.84301758 69.44604492 C-208.25149902 69.00260742 -207.65998047 68.55916992 -207.05053711 68.10229492 C-176.65367908 45.38230761 -141.94610591 27.96585999 -105.84301758 16.44604492 C-104.41699219 15.9880249 -104.41699219 15.9880249 -102.9621582 15.52075195 C-91.22288104 11.79907522 -79.39052917 8.74817076 -67.34301758 6.19604492 C-66.25424316 5.96191895 -65.16546875 5.72779297 -64.04370117 5.48657227 C-60.32119661 4.73124225 -56.59076838 4.06088693 -52.84301758 3.44604492 C-51.63335831 3.24638626 -51.63335831 3.24638626 -50.39926147 3.04269409 C-33.61999117 0.3781015 -16.94497174 -0.05619721 0 0 Z " fill="#0B0C0C" transform="translate(352.843017578125,-0.446044921875)"/>
<path d="M0 0 C0.66273926 0.48178711 1.32547852 0.96357422 2.00830078 1.45996094 C48.24680932 35.4719988 79.17872396 87.39637332 88.20288086 143.99389648 C88.496375 145.99337175 88.75511624 147.99401182 89 150 C89.0920874 150.70866211 89.1841748 151.41732422 89.27905273 152.14746094 C92.80077518 182.38428006 89.72844216 213.91929695 81 243 C80.76474609 243.78681152 80.52949219 244.57362305 80.28710938 245.38427734 C70.67056234 276.67611543 53.91882781 305.61298013 31.453125 329.39453125 C29.36972845 331.60731071 27.39252399 333.86248316 25.4375 336.1875 C21.35547266 340.89155055 16.67874865 344.90435949 12 349 C10.18386538 350.60005062 8.37126491 352.20412304 6.5625 353.8125 C5.75941406 354.52019531 4.95632813 355.22789062 4.12890625 355.95703125 C3.42636719 356.63121094 2.72382813 357.30539062 2 358 C1.4686998 358.50285522 0.9373996 359.00571045 0.38999939 359.52380371 C-1.79854192 363.42255209 -1.40563517 367.26561754 -1.36889648 371.66210938 C-1.37266296 372.64137894 -1.37642944 373.6206485 -1.38031006 374.6295929 C-1.38674383 376.75486799 -1.38641129 378.88017185 -1.38012505 381.00544739 C-1.37102934 384.36755664 -1.3812211 387.7291065 -1.39674377 391.09118652 C-1.43688987 400.64948645 -1.43804266 410.2077431 -1.43579102 419.76611328 C-1.43573999 425.61282457 -1.45486776 431.45923383 -1.48512459 437.30586243 C-1.49597799 440.62089284 -1.48380294 443.93535384 -1.47129822 447.25036621 C-1.48019992 449.27954681 -1.49027335 451.30872272 -1.50170898 453.33789062 C-1.49196548 454.26164993 -1.48222198 455.18540924 -1.47218323 456.13716125 C-1.54267734 462.39027062 -1.54267734 462.39027062 -3.90614319 465.54138184 C-7.75378304 468.22171669 -10.28727933 468.3873469 -15 468 C-17.73828125 466.3828125 -17.73828125 466.3828125 -20.3125 464.125 C-21.25351562 463.30515625 -22.19453125 462.4853125 -23.1640625 461.640625 C-26.67848772 458.36824008 -30.09011955 455.01658317 -33.41796875 451.5546875 C-36.14452078 448.85700969 -38.99446193 446.36277844 -41.8918457 443.85205078 C-45.34235329 440.82071893 -48.66717405 437.65948749 -52 434.5 C-53.49466552 433.08840808 -54.98946032 431.67695305 -56.484375 430.265625 C-57.23525391 429.55599609 -57.98613281 428.84636719 -58.75976562 428.11523438 C-62.90911505 424.19740924 -67.06234842 420.28349721 -71.2421875 416.39819336 C-74.41701385 413.44511472 -77.55038347 410.4677936 -80.609375 407.39453125 C-81.46934082 406.55003418 -81.46934082 406.55003418 -82.34667969 405.68847656 C-83.41014903 404.64259561 -84.45914381 403.58167858 -85.48925781 402.50292969 C-88.18665161 399.88556645 -89.81702608 399.02099701 -93.57421875 398.58984375 C-95.05246717 398.68917616 -96.52809555 398.83093605 -98 399 C-98.94439941 399.09933838 -99.88879883 399.19867676 -100.86181641 399.30102539 C-104.18227576 399.67455781 -107.49663951 400.08775914 -110.8125 400.5 C-167.97027245 407.10530731 -228.02331698 388.92515669 -273.03515625 353.25390625 C-278.39598649 348.9076709 -283.4870119 344.31339514 -288.43945312 339.50927734 C-290.0240222 337.97676701 -291.62841457 336.46707747 -293.234375 334.95703125 C-323.32517489 306.24340527 -343.38674425 266.36782205 -352 226 C-352.31324219 224.60297852 -352.31324219 224.60297852 -352.6328125 223.17773438 C-359.04847685 193.5560436 -358.7717554 159.51949388 -352 130 C-351.78569336 129.05125 -351.57138672 128.1025 -351.35058594 127.125 C-342.16488264 87.76152035 -321.80722194 53.0501643 -294 24 C-293.52981445 23.50258301 -293.05962891 23.00516602 -292.57519531 22.49267578 C-284.97805066 14.48661237 -276.84055847 7.59250279 -268 1 C-267.44086914 0.57477051 -266.88173828 0.14954102 -266.30566406 -0.28857422 C-256.74693735 -7.54550597 -246.63662757 -13.46251853 -236 -19 C-235.33194336 -19.35304199 -234.66388672 -19.70608398 -233.97558594 -20.06982422 C-213.10353964 -30.97570334 -190.17344063 -37.33740259 -167 -41 C-165.78884521 -41.19480957 -165.78884521 -41.19480957 -164.55322266 -41.39355469 C-106.9618355 -50.18556889 -46.74735948 -34.14929006 0 0 Z " fill="#0C0C0C" transform="translate(492,134)"/>
<path d="M0 0 C0.66273926 0.48178711 1.32547852 0.96357422 2.00830078 1.45996094 C48.24680932 35.4719988 79.17872396 87.39637332 88.20288086 143.99389648 C88.496375 145.99337175 88.75511624 147.99401182 89 150 C89.0920874 150.70866211 89.1841748 151.41732422 89.27905273 152.14746094 C92.80077518 182.38428006 89.72844216 213.91929695 81 243 C80.76474609 243.78681152 80.52949219 244.57362305 80.28710938 245.38427734 C70.67056234 276.67611543 53.91882781 305.61298013 31.453125 329.39453125 C29.36972845 331.60731071 27.39252399 333.86248316 25.4375 336.1875 C21.35547266 340.89155055 16.67874865 344.90435949 12 349 C10.18386538 350.60005062 8.37126491 352.20412304 6.5625 353.8125 C5.75941406 354.52019531 4.95632813 355.22789062 4.12890625 355.95703125 C3.42636719 356.63121094 2.72382813 357.30539062 2 358 C1.4686998 358.50285522 0.9373996 359.00571045 0.38999939 359.52380371 C-1.79854192 363.42255209 -1.40563517 367.26561754 -1.36889648 371.66210938 C-1.37266296 372.64137894 -1.37642944 373.6206485 -1.38031006 374.6295929 C-1.38674383 376.75486799 -1.38641129 378.88017185 -1.38012505 381.00544739 C-1.37102934 384.36755664 -1.3812211 387.7291065 -1.39674377 391.09118652 C-1.43688987 400.64948645 -1.43804266 410.2077431 -1.43579102 419.76611328 C-1.43573999 425.61282457 -1.45486776 431.45923383 -1.48512459 437.30586243 C-1.49597799 440.62089284 -1.48380294 443.93535384 -1.47129822 447.25036621 C-1.48019992 449.27954681 -1.49027335 451.30872272 -1.50170898 453.33789062 C-1.49196548 454.26164993 -1.48222198 455.18540924 -1.47218323 456.13716125 C-1.54267734 462.39027062 -1.54267734 462.39027062 -3.90614319 465.54138184 C-7.75378304 468.22171669 -10.28727933 468.3873469 -15 468 C-17.73828125 466.3828125 -17.73828125 466.3828125 -20.3125 464.125 C-21.25351562 463.30515625 -22.19453125 462.4853125 -23.1640625 461.640625 C-26.67848772 458.36824008 -30.09011955 455.01658317 -33.41796875 451.5546875 C-36.14452078 448.85700969 -38.99446193 446.36277844 -41.8918457 443.85205078 C-45.34235329 440.82071893 -48.66717405 437.65948749 -52 434.5 C-53.49466552 433.08840808 -54.98946032 431.67695305 -56.484375 430.265625 C-57.23525391 429.55599609 -57.98613281 428.84636719 -58.75976562 428.11523438 C-62.90911505 424.19740924 -67.06234842 420.28349721 -71.2421875 416.39819336 C-74.41701385 413.44511472 -77.55038347 410.4677936 -80.609375 407.39453125 C-81.46934082 406.55003418 -81.46934082 406.55003418 -82.34667969 405.68847656 C-83.41014903 404.64259561 -84.45914381 403.58167858 -85.48925781 402.50292969 C-88.18665161 399.88556645 -89.81702608 399.02099701 -93.57421875 398.58984375 C-95.05246717 398.68917616 -96.52809555 398.83093605 -98 399 C-98.94439941 399.09933838 -99.88879883 399.19867676 -100.86181641 399.30102539 C-104.18227576 399.67455781 -107.49663951 400.08775914 -110.8125 400.5 C-167.97027245 407.10530731 -228.02331698 388.92515669 -273.03515625 353.25390625 C-278.39598649 348.9076709 -283.4870119 344.31339514 -288.43945312 339.50927734 C-290.0240222 337.97676701 -291.62841457 336.46707747 -293.234375 334.95703125 C-323.32517489 306.24340527 -343.38674425 266.36782205 -352 226 C-352.31324219 224.60297852 -352.31324219 224.60297852 -352.6328125 223.17773438 C-359.04847685 193.5560436 -358.7717554 159.51949388 -352 130 C-351.78569336 129.05125 -351.57138672 128.1025 -351.35058594 127.125 C-342.16488264 87.76152035 -321.80722194 53.0501643 -294 24 C-293.52981445 23.50258301 -293.05962891 23.00516602 -292.57519531 22.49267578 C-284.97805066 14.48661237 -276.84055847 7.59250279 -268 1 C-267.44086914 0.57477051 -266.88173828 0.14954102 -266.30566406 -0.28857422 C-256.74693735 -7.54550597 -246.63662757 -13.46251853 -236 -19 C-235.33194336 -19.35304199 -234.66388672 -19.70608398 -233.97558594 -20.06982422 C-213.10353964 -30.97570334 -190.17344063 -37.33740259 -167 -41 C-165.78884521 -41.19480957 -165.78884521 -41.19480957 -164.55322266 -41.39355469 C-106.9618355 -50.18556889 -46.74735948 -34.14929006 0 0 Z M-178 -10 C-178.87382324 -9.78569336 -179.74764648 -9.57138672 -180.64794922 -9.35058594 C-206.87779866 -2.8133443 -231.6766723 8.24642244 -253 25 C-253.78866455 25.6172998 -253.78866455 25.6172998 -254.59326172 26.24707031 C-294.2532709 57.68770394 -321.01650485 103.10842016 -327.34777832 153.52653503 C-328.2486929 161.38787022 -328.35221612 169.21996844 -328.3125 177.125 C-328.31067719 177.88491241 -328.30885437 178.64482483 -328.30697632 179.42776489 C-328.17538473 212.18549864 -320.6385568 243.14901042 -305 272 C-304.43539062 273.04542969 -303.87078125 274.09085937 -303.2890625 275.16796875 C-280.71459737 315.28268731 -242.1593516 348.21926187 -198 362 C-195.33907639 362.69245404 -192.67119332 363.34754386 -190 364 C-189.99413376 363.35298126 -189.98826752 362.70596252 -189.98222351 362.03933716 C-189.91844082 355.32362084 -189.83406123 348.6083905 -189.73754883 341.89306641 C-189.70423137 339.38466791 -189.67622098 336.87619322 -189.65356445 334.36767578 C-189.62014401 330.76822333 -189.56783414 327.16947361 -189.51171875 323.5703125 C-189.50532883 322.44319855 -189.4989389 321.31608459 -189.49235535 320.15481567 C-189.46266411 318.59342361 -189.46266411 318.59342361 -189.43237305 317.00048828 C-189.41571846 315.62148849 -189.41571846 315.62148849 -189.39872742 314.21463013 C-189.20135735 313.11838821 -189.20135735 313.11838821 -189 312 C-185.88576239 309.92384159 -185.20603579 309.74875121 -181.67321777 309.73930359 C-180.78994308 309.73221878 -179.9066684 309.72513397 -178.99662781 309.71783447 C-178.03029922 309.72031189 -177.06397064 309.72278931 -176.06835938 309.7253418 C-175.04861526 309.72023087 -174.02887115 309.71511993 -172.97822571 309.70985413 C-169.60000781 309.69592869 -166.22199322 309.69691697 -162.84375 309.69921875 C-160.50109786 309.69533379 -158.15844642 309.69099953 -155.8157959 309.68623352 C-150.90305295 309.6787652 -145.99038187 309.67906729 -141.07763672 309.68432617 C-134.77226307 309.6901252 -128.46718273 309.67318208 -122.1618576 309.6499815 C-117.32352978 309.6352737 -112.4852731 309.63436837 -107.64692688 309.63749123 C-105.3216341 309.63697665 -102.99633747 309.63171344 -100.67106628 309.62167931 C-97.42439514 309.60938793 -94.17830202 309.61606256 -90.93164062 309.62768555 C-89.96531204 309.62004181 -88.99898346 309.61239807 -88.00337219 309.60452271 C-87.1200975 309.61153702 -86.23682281 309.61855133 -85.32678223 309.6257782 C-84.55913795 309.62561046 -83.79149368 309.62544271 -83.00058746 309.62526989 C-80.4534162 310.10238063 -79.55840563 310.96307091 -78 313 C-77.75363159 315.41030884 -77.75363159 315.41030884 -77.92919922 318.30322266 C-77.98429657 319.38930817 -78.03939392 320.47539368 -78.09616089 321.59439087 C-78.16497467 322.77238251 -78.23378845 323.95037415 -78.3046875 325.1640625 C-78.39633456 327.67432213 -78.48342126 330.18475159 -78.56640625 332.6953125 C-78.70748867 336.64464386 -78.87251193 340.5849706 -79.11767578 344.52929688 C-80.51364164 360.83221057 -80.51364164 360.83221057 -74.43457031 375.38183594 C-71.0003489 379.08873703 -67.26811923 382.28004534 -63.23101807 385.31048584 C-58.16685006 389.14549896 -53.41143209 393.43101677 -49 398 C-45.17148171 401.88096374 -41.14569449 405.46374517 -37 409 C-35.78828501 410.03800614 -34.57679452 411.07627438 -33.36547852 412.11474609 C-32.42007957 412.92520889 -32.42007957 412.92520889 -31.45558167 413.75204468 C-30.97523972 414.16386993 -30.49489777 414.57569519 -30 415 C-29.99635437 414.31032639 -29.99270874 413.62065277 -29.98895264 412.91007996 C-29.9508587 406.36455243 -29.89376757 399.81948636 -29.81609726 393.27430248 C-29.776829 389.91047086 -29.74454097 386.5468929 -29.72900391 383.18286133 C-29.70744222 379.30247739 -29.66072075 375.42305944 -29.609375 371.54296875 C-29.60814636 370.35293747 -29.60691772 369.16290619 -29.60565186 367.93681335 C-29.35323575 353.3392857 -24.10157519 343.80152585 -13.7734375 333.796875 C-12.31349065 332.44121007 -10.8473003 331.09223844 -9.375 329.75 C-7.90304665 328.39127383 -6.43167766 327.03191429 -4.9609375 325.671875 C-3.92791504 324.72006348 -3.92791504 324.72006348 -2.87402344 323.74902344 C-0.52427288 321.55600455 1.73903868 319.28411109 4 317 C4.804375 316.24203125 5.60875 315.4840625 6.4375 314.703125 C39.07595806 283.45777186 60.01167679 236.43599815 61.21939087 191.2830658 C61.66523075 170.38737367 61.71910379 150.26847662 56 130 C55.72124023 128.99952637 55.44248047 127.99905273 55.15527344 126.96826172 C46.68523381 97.52010067 32.09514189 70.32906747 11 48 C10.38366699 47.34660645 9.76733398 46.69321289 9.13232422 46.02001953 C-2.82551411 33.46650097 -15.49609502 23.11841535 -30.28222656 14.05712891 C-31.90437504 13.05884822 -33.51133294 12.03600443 -35.1171875 11.01171875 C-60.75846413 -4.63008692 -92.96601196 -13.94512033 -123.0390625 -14.23828125 C-123.87438507 -14.2480751 -124.70970764 -14.25786896 -125.57034302 -14.26795959 C-143.38685939 -14.4339584 -160.62766693 -14.45235921 -178 -10 Z " fill="#F8F8F8" transform="translate(492,134)"/>
<path d="M0 0 C2.74127105 2.74127105 4.08027035 4.70525624 5.86328125 8.06640625 C6.41314697 9.09588379 6.9630127 10.12536133 7.52954102 11.18603516 C8.41210571 12.85738525 8.41210571 12.85738525 9.3125 14.5625 C10.255111 16.33061829 11.19772984 18.09873246 12.14085388 19.86657715 C13.11832629 21.70038703 14.09350919 23.53540047 15.06835938 25.37060547 C18.04388304 30.96750364 21.0544638 36.5455303 24.0625 42.125 C24.64169189 43.20080322 25.22088379 44.27660645 25.81762695 45.38500977 C29.70046218 52.59614436 33.59654716 59.80000834 37.5 67 C44.95325401 80.74766621 52.36162493 94.51940209 59.77050781 108.29101562 C66.21136435 120.26225975 72.65736473 132.23069725 79.125 144.1875 C79.92369507 145.66597412 79.92369507 145.66597412 80.73852539 147.17431641 C81.23989014 148.10034668 81.74125488 149.02637695 82.2578125 149.98046875 C82.72477539 150.85106934 83.19173828 151.72166992 83.67285156 152.61865234 C84.49791885 154.09909869 85.36354748 155.55855115 86.28808594 156.97900391 C88.18796995 159.90684056 89.02167773 161.60781621 88.82666016 165.13598633 C87.83973322 169.74912648 86.22273388 173.7739958 84.34375 178.0859375 C83.96915146 178.96465515 83.59455292 179.8433728 83.20860291 180.74871826 C81.97983914 183.62739142 80.73988462 186.50110155 79.5 189.375 C77.76875875 193.420435 76.04294386 197.46818077 74.31640625 201.515625 C73.87611588 202.54539459 73.4358255 203.57516418 72.98219299 204.63613892 C69.95146526 211.73360228 66.97087243 218.85032928 64.02734375 225.984375 C63.63660675 226.93120148 63.24586975 227.87802795 62.84329224 228.85354614 C61.33699622 232.50720882 59.83260127 236.16163499 58.33300781 239.8180542 C57.30665927 242.3198953 56.27661844 244.82018939 55.24609375 247.3203125 C54.94485092 248.0588446 54.64360809 248.79737671 54.33323669 249.55828857 C53.07930609 252.5949693 51.82938721 255.25591918 50 258 C47.98914146 258.36914349 47.98914146 258.36914349 45.46957397 258.36076355 C44.51602524 258.36488754 43.5624765 258.36901154 42.58003235 258.3732605 C41.53058945 258.36247467 40.48114655 258.35168884 39.39990234 258.34057617 C37.74623405 258.34123329 37.74623405 258.34123329 36.05915833 258.34190369 C32.40124026 258.33980727 28.74377587 258.31643555 25.0859375 258.29296875 C22.55531057 258.28737584 20.0246804 258.28310431 17.49404907 258.28010559 C11.50518412 258.26980657 5.51651505 258.24614272 -0.47227132 258.21605712 C-7.28957719 258.18255111 -14.10689079 258.1660367 -20.92425847 258.15097082 C-34.94959645 258.11959406 -48.97478927 258.06680989 -63 258 C-64.76897783 253.98896248 -66.53658529 249.97732246 -68.30395508 245.96557617 C-68.80232124 244.83560966 -69.30068741 243.70564316 -69.81415558 242.54143524 C-73.2071338 234.83732507 -76.51297015 227.10937578 -79.6875 219.3125 C-80.67279919 216.9016365 -81.6591613 214.49126086 -82.6484375 212.08203125 C-82.90581192 211.45511383 -83.16318634 210.82819641 -83.42835999 210.18228149 C-85.67920148 204.72566261 -88.01201662 199.30577913 -90.3515625 193.88671875 C-91.47000985 191.28219352 -92.58741077 188.67722176 -93.70449829 186.07211304 C-94.43952003 184.36583499 -95.17920462 182.66155759 -95.92367554 180.9593811 C-96.96752856 178.57160658 -97.99499395 176.17736277 -99.01953125 173.78125 C-99.33657013 173.06793015 -99.65360901 172.35461029 -99.98025513 171.61967468 C-101.65227288 167.66141213 -102.49025145 165.09530507 -101 161 C-100.18564725 159.23888082 -99.30098141 157.50939947 -98.3671875 155.80859375 C-97.81611328 154.79603516 -97.26503906 153.78347656 -96.69726562 152.74023438 C-95.79524414 151.10538086 -95.79524414 151.10538086 -94.875 149.4375 C-93.91991247 147.68601338 -92.96484193 145.93451729 -92.01068115 144.18252563 C-91.01109818 142.3484531 -90.00895738 140.51579198 -89.00683594 138.68310547 C-85.80022442 132.80896664 -82.65360038 126.90272351 -79.5 121 C-72.93322117 108.72743276 -66.33720813 96.47070666 -59.73388672 84.21777344 C-57.40555803 79.89682552 -55.07857344 75.57515452 -52.75170898 71.25341797 C-51.58597247 69.08831626 -50.42012002 66.92327696 -49.25415039 64.75830078 C-46.31081314 59.29298478 -43.36892271 53.82689828 -40.4296875 48.359375 C-34.2640708 36.8938762 -28.08076075 25.43910764 -21.81787109 14.02636719 C-19.46051577 9.72177518 -17.15449893 5.40987742 -15 1 C-14.34 1 -13.68 1 -13 1 C-12.81305685 18.75878557 -12.67201555 36.51731554 -12.58550262 54.27687263 C-12.5442639 62.52313263 -12.48805005 70.76878103 -12.39648438 79.01464844 C-12.31670634 86.20242118 -12.26512515 93.389751 -12.24729204 100.57795417 C-12.23686828 104.38378668 -12.21240373 108.18835218 -12.15415955 111.99377823 C-12.09975022 115.57777471 -12.08312683 119.1599859 -12.09513855 122.74435616 C-12.09189684 124.68289626 -12.04889682 126.62124287 -12.00463867 128.5592804 C-12.08401547 136.93909352 -12.08401547 136.93909352 -14.77174377 140.05205917 C-16.9317627 141.65670776 -16.9317627 141.65670776 -19.08661652 142.88502312 C-22.17277214 144.68340395 -22.96838677 146.647257 -24 150 C-24.76956272 155.78633233 -24.45678822 161.09872208 -21.52734375 166.23828125 C-17.62757449 170.73648058 -12.13456008 172.70557792 -6.375 173.5 C-0.6605646 172.65341698 4.05366817 171.49942477 7.9375 167 C11.80961794 161.36782845 11.63326821 155.64052083 11 149 C8.58064724 143.98208316 5.0008269 140.50041345 0 138 C0 92.46 0 46.92 0 0 Z " fill="#F7F7F7" transform="translate(365,168)"/>
<path d="M0 0 C6.59904729 1.52785824 12.87389209 3.07617577 19 6 C19 6.33 19 6.66 19 7 C11.91296261 6.45484328 5.67203894 4.39081395 -1 2 C-0.67 1.34 -0.34 0.68 0 0 Z " fill="#F0F0F0" transform="translate(280,519)"/>
<path d="M0 0 C0.66 0.33 1.32 0.66 2 1 C0.76238177 2.65516419 -0.49057455 4.29886798 -1.75 5.9375 C-2.44609375 6.85402344 -3.1421875 7.77054687 -3.859375 8.71484375 C-6.01029035 11.01098513 -6.93617261 11.67567593 -10 12 C-9.61328125 11.55269531 -9.2265625 11.10539062 -8.828125 10.64453125 C-5.81609925 7.1478974 -2.85678969 3.62592537 0 0 Z M-12 12 C-11.34 12.33 -10.68 12.66 -10 13 C-10.99 13.99 -11.98 14.98 -13 16 C-13.66 15.67 -14.32 15.34 -15 15 C-14.01 14.01 -13.02 13.02 -12 12 Z " fill="#161616" transform="translate(523,463)"/>
<path d="M0 0 C0.33 0 0.66 0 1 0 C1 4.95 1 9.9 1 15 C-2.63 14.01 -6.26 13.02 -10 12 C-10 11.67 -10 11.34 -10 11 C-7.03 11.33 -4.06 11.66 -1 12 C-0.67 8.04 -0.34 4.08 0 0 Z " fill="#161615" transform="translate(301,483)"/>
<path d="M0 0 C0 0.66 0 1.32 0 2 C-5.23754283 4.20528119 -9.20971854 5.57902815 -15 5 C-15.66 4.34 -16.32 3.68 -17 3 C-13.37 3 -9.74 3 -6 3 C-6 2.34 -6 1.68 -6 1 C-3.92446352 0.4465236 -2.15634036 0 0 0 Z " fill="#141414" transform="translate(370,337)"/>
<path d="M0 0 C0 0.66 0 1.32 0 2 C-9.55294118 3.31764706 -9.55294118 3.31764706 -14 3 C-14.66 2.34 -15.32 1.68 -16 1 C-10.59255982 0.22750855 -5.46137814 -0.09752461 0 0 Z " fill="#1B1A1B" transform="translate(345,120)"/>
<path d="M0 0 C0.66 0 1.32 0 2 0 C1.44687265 4.02992782 0.8441938 8.02022924 0 12 C-0.99 12 -1.98 12 -3 12 C-2.69230293 10.18667846 -2.37870936 8.37435655 -2.0625 6.5625 C-1.80146484 5.04849609 -1.80146484 5.04849609 -1.53515625 3.50390625 C-1 1 -1 1 0 0 Z " fill="#111112" transform="translate(578,356)"/>
<path d="M0 0 C-1 1.5 -1 1.5 -3 3 C-5.79873829 3.39491399 -8.13817454 3.227129 -11 3 C-11.66 2.34 -12.32 1.68 -13 1 C-8.59085217 -0.10228696 -4.51617599 -0.07654536 0 0 Z " fill="#F0F0F0" transform="translate(352,91)"/>
<path d="M0 0 C0.33 1.32 0.66 2.64 1 4 C0.01 4.495 0.01 4.495 -1 5 C-0.67 5.99 -0.34 6.98 0 8 C-0.33 8.99 -0.66 9.98 -1 11 C-1.66 11 -2.32 11 -3 11 C-2.67 12.32 -2.34 13.64 -2 15 C-2.99 15 -3.98 15 -5 15 C-4.54705135 13.24859857 -4.08741252 11.49892656 -3.625 9.75 C-3.36976563 8.77546875 -3.11453125 7.8009375 -2.8515625 6.796875 C-2.10401491 4.34162697 -1.22876183 2.24382595 0 0 Z " fill="#131313" transform="translate(176,244)"/>
<path d="M0 0 C0.66 0 1.32 0 2 0 C2.99 3.96 3.98 7.92 5 12 C4.01 12 3.02 12 2 12 C2 10.02 2 8.04 2 6 C1.34 6 0.68 6 0 6 C0 4.02 0 2.04 0 0 Z " fill="#141413" transform="translate(142,372)"/>
<path d="M0 0 C3.3125 -0.1875 3.3125 -0.1875 7 0 C7.99 0.99 8.98 1.98 10 3 C7.03 3 4.06 3 1 3 C0.67 2.01 0.34 1.02 0 0 Z " fill="#121212" transform="translate(371,120)"/>
<path d="M0 0 C0.99 0.33 1.98 0.66 3 1 C3.33 3.97 3.66 6.94 4 10 C3.34 10 2.68 10 2 10 C1.34 6.7 0.68 3.4 0 0 Z " fill="#1C1C1C" transform="translate(548,277)"/>
<path d="M0 0 C3.2542015 2.83430453 4.5206753 4.68607774 5 9 C4.34 9 3.68 9 3 9 C0 3.375 0 3.375 0 0 Z " fill="#141414" transform="translate(448,318)"/>
<path d="M0 0 C0.66 0 1.32 0 2 0 C2.36629408 4.27343092 1.40814077 6.48812804 -1 10 C-2.27351308 7.45297384 -1.80191925 6.5717055 -1.0625 3.875 C-0.86785156 3.15054688 -0.67320312 2.42609375 -0.47265625 1.6796875 C-0.31667969 1.12539062 -0.16070312 0.57109375 0 0 Z " fill="#EAEAEB" transform="translate(143,252)"/>
</svg>
